<svg width="71" height="40" viewBox="0 0 71 40" fill="none" xmlns="http://www.w3.org/2000/svg">
<path fill-rule="evenodd" clip-rule="evenodd" d="M46.8692 0L45.4982 7H71L64.0615 40H31.8126L33.6663 31H0L6.60402 0H46.8692ZM21.7682 18.1492C21.7888 17.9205 21.8043 17.697 21.8147 17.4773C21.825 17.2589 21.8302 17.0677 21.8289 16.9049C21.8289 15.8362 21.6609 14.8891 21.325 14.0647C20.989 13.2403 20.5354 12.5451 19.9656 11.9804C19.3958 11.4145 18.7316 10.9855 17.9731 10.6895C17.2133 10.3936 16.4121 10.2463 15.5671 10.2463C14.315 10.2463 13.161 10.4906 12.1079 10.979C11.0535 11.4674 10.1503 12.1574 9.39697 13.0477C8.64364 13.9393 8.0557 15.008 7.63316 16.2549C7.21062 17.5018 7 18.8845 7 20.4015C7 21.5114 7.17574 22.4935 7.5272 23.3489C7.87867 24.2043 8.35678 24.924 8.9628 25.5094C9.56883 26.0947 10.2795 26.538 11.0936 26.8377C11.9076 27.1388 12.7734 27.2887 13.6895 27.2887C14.647 27.2887 15.5244 27.1737 16.3243 26.945C17.1228 26.7163 17.8258 26.3997 18.4318 25.9978C19.0378 25.596 19.5392 25.1192 19.9359 24.57C20.3326 24.0208 20.6181 23.4303 20.7913 22.7984H17.9963C17.65 23.4406 17.1461 23.9498 16.4845 24.3258C15.8229 24.7018 14.9468 24.8904 13.8575 24.8904C13.3587 24.8904 12.8651 24.8065 12.3767 24.6385C11.8883 24.4705 11.4476 24.1991 11.0561 23.8218C10.6633 23.4445 10.3454 22.9587 10.1012 22.363C9.85698 21.7673 9.73422 21.0476 9.73422 20.2025C9.73422 20.0603 9.73681 19.9234 9.74198 19.7903C9.74714 19.6585 9.7549 19.5215 9.76524 19.3781H21.6312C21.6622 19.2256 21.6868 19.0395 21.7074 18.8211C21.7202 18.6776 21.7335 18.5313 21.747 18.3829L21.7472 18.3799L21.7475 18.377L21.7682 18.1492ZM18.1346 13.7584C17.8193 13.3915 17.4265 13.102 16.9587 12.8875C16.4897 12.6743 15.9457 12.5671 15.3241 12.5671C14.6923 12.5671 14.1017 12.6795 13.5526 12.903C13.0021 13.1266 12.5033 13.4457 12.0562 13.8579C11.6079 14.2701 11.2215 14.7638 10.8959 15.3388C10.5702 15.9138 10.3105 16.5534 10.1167 17.255H19.0507C19.0611 17.2047 19.0688 17.1103 19.074 16.9721C19.0792 16.8351 19.0817 16.6994 19.0817 16.5676C19.0817 16.0275 19.0029 15.5158 18.8453 15.0325C18.6863 14.5505 18.4499 14.1254 18.1346 13.7584ZM34.2866 26.9993L34.7596 24.7548H34.5153C33.9145 25.5391 33.1611 26.1568 32.2553 26.6103C31.3495 27.0626 30.3714 27.29 29.3234 27.29C28.499 27.29 27.725 27.1349 27.0014 26.8235C26.2778 26.5134 25.6446 26.0676 25.1006 25.4874C24.5553 24.9072 24.125 24.2043 23.8097 23.3799C23.4944 22.5555 23.3368 21.6342 23.3368 20.616C23.3368 19.6287 23.4363 18.6842 23.634 17.7835C23.833 16.8829 24.1147 16.0482 24.4817 15.2793C24.8486 14.5105 25.288 13.8153 25.8023 13.1951C26.3165 12.5735 26.8864 12.045 27.5131 11.607C28.1398 11.1689 28.8156 10.833 29.5444 10.5991C30.2719 10.3652 31.0329 10.2476 31.8276 10.2476C32.4181 10.2476 32.9802 10.329 33.5152 10.4918C34.0502 10.6547 34.5334 10.8808 34.9663 11.1715C35.3992 11.4623 35.77 11.8124 36.0814 12.2246C36.3916 12.6368 36.619 13.0878 36.7611 13.5762H37.0053L39.0366 4H41.7088L36.8218 27.0006H34.2866V26.9993ZM33.7517 12.934C34.2608 13.1472 34.6937 13.4509 35.0503 13.8424C35.4069 14.2352 35.6809 14.7108 35.8734 15.269C36.0672 15.8298 36.1642 16.4604 36.1642 17.1633C36.1642 18.2526 36.0104 19.2682 35.7054 20.2102C35.4005 21.1522 34.9779 21.9714 34.4378 22.6692C33.899 23.3657 33.2645 23.9162 32.537 24.318C31.8083 24.7212 31.0175 24.9215 30.162 24.9215C29.5521 24.9215 28.9965 24.8065 28.4977 24.5777C27.999 24.3477 27.5713 24.0273 27.2146 23.6151C26.858 23.2029 26.5815 22.7067 26.3825 22.1265C26.1835 21.5463 26.084 20.9106 26.084 20.218C26.084 19.108 26.2377 18.0872 26.5427 17.1555C26.8476 16.2252 27.265 15.4227 27.7948 14.7508C28.3246 14.0789 28.95 13.5556 29.6736 13.1783C30.3959 12.8022 31.1803 12.6136 32.0253 12.6136C32.6675 12.6136 33.2426 12.7195 33.7517 12.934ZM60.642 36H54.7042L50.8218 27.4791H50.3368L43.1515 36H37.25L48.4474 22.7343L43.2604 11H49.3111L52.7617 19.0787H53.0833L59.6085 11H65.5904L54.9013 23.3217L60.642 36Z" fill="#00262B"/>
</svg>
